<mxfile host="app.diagrams.net" modified="2023-09-28T13:01:16.710Z" agent="Mozilla/5.0 (Windows NT 10.0; Win64; x64; rv:109.0) Gecko/20100101 Firefox/117.0" etag="Y40spYVeeHBN7JJn0cZ1" version="21.8.2" type="device" pages="2">
  <diagram name="Страница — 1" id="K8Wx1m4RjslwDhSuhDEU">
    <mxGraphModel dx="555" dy="824" grid="1" gridSize="10" guides="1" tooltips="1" connect="1" arrows="1" fold="1" page="1" pageScale="1" pageWidth="1169" pageHeight="827" math="0" shadow="0">
      <root>
        <mxCell id="0" />
        <mxCell id="1" parent="0" />
        <mxCell id="6MWJ6jLgGA3QvhYDVrpH-6" value="" style="group" vertex="1" connectable="0" parent="1">
          <mxGeometry x="40" y="205" width="250" height="280" as="geometry" />
        </mxCell>
        <mxCell id="_IiKv0jDs9eT7AmXAW_U-5" value="" style="rounded=1;whiteSpace=wrap;html=1;arcSize=6;" parent="6MWJ6jLgGA3QvhYDVrpH-6" vertex="1">
          <mxGeometry width="250" height="280" as="geometry" />
        </mxCell>
        <mxCell id="_IiKv0jDs9eT7AmXAW_U-3" value="Надати стан здоров&#39;я" style="text;html=1;strokeColor=none;fillColor=none;align=center;verticalAlign=middle;whiteSpace=wrap;rounded=0;fontFamily=Verdana;fontSize=14;" parent="6MWJ6jLgGA3QvhYDVrpH-6" vertex="1">
          <mxGeometry x="20" y="20" width="210" height="45" as="geometry" />
        </mxCell>
        <mxCell id="_IiKv0jDs9eT7AmXAW_U-4" value="Надіслати" style="rounded=1;whiteSpace=wrap;html=1;fontFamily=Verdana;fontSize=14;fillColor=#9FC5F9;strokeColor=#6c8ebf;fontColor=#ffffff;arcSize=35;" parent="6MWJ6jLgGA3QvhYDVrpH-6" vertex="1">
          <mxGeometry x="65" y="160" width="120" height="60" as="geometry" />
        </mxCell>
        <mxCell id="_IiKv0jDs9eT7AmXAW_U-6" value="" style="endArrow=none;html=1;rounded=0;exitX=0;exitY=1;exitDx=0;exitDy=0;entryX=1;entryY=1;entryDx=0;entryDy=0;strokeColor=#9FC5F9;strokeWidth=3;" parent="6MWJ6jLgGA3QvhYDVrpH-6" source="_IiKv0jDs9eT7AmXAW_U-3" target="_IiKv0jDs9eT7AmXAW_U-3" edge="1">
          <mxGeometry width="50" height="50" relative="1" as="geometry">
            <mxPoint x="430" y="260" as="sourcePoint" />
            <mxPoint x="480" y="210" as="targetPoint" />
          </mxGeometry>
        </mxCell>
        <mxCell id="6MWJ6jLgGA3QvhYDVrpH-2" value="Впишіть інформацію" style="strokeWidth=1;shadow=0;dashed=0;align=center;html=1;shape=mxgraph.mockup.text.textBox;fontColor=#666666;align=left;fontSize=17;spacingLeft=4;spacingTop=-3;whiteSpace=wrap;strokeColor=#666666;mainText=" vertex="1" parent="6MWJ6jLgGA3QvhYDVrpH-6">
          <mxGeometry x="30" y="105" width="190" height="30" as="geometry" />
        </mxCell>
      </root>
    </mxGraphModel>
  </diagram>
  <diagram id="BJLoXcGfQ60MqG4wH1Ai" name="Страница — 2">
    <mxGraphModel dx="472" dy="700" grid="1" gridSize="10" guides="1" tooltips="1" connect="1" arrows="1" fold="1" page="1" pageScale="1" pageWidth="1169" pageHeight="827" math="0" shadow="0">
      <root>
        <mxCell id="0" />
        <mxCell id="1" parent="0" />
        <mxCell id="Hxf_RkgtDm0DmVYfX6aS-1" value="" style="group" vertex="1" connectable="0" parent="1">
          <mxGeometry x="140" y="164" width="190" height="250" as="geometry" />
        </mxCell>
        <mxCell id="Hxf_RkgtDm0DmVYfX6aS-2" value="" style="rounded=1;whiteSpace=wrap;html=1;arcSize=8;" vertex="1" parent="Hxf_RkgtDm0DmVYfX6aS-1">
          <mxGeometry y="10" width="190" height="240" as="geometry" />
        </mxCell>
        <mxCell id="Hxf_RkgtDm0DmVYfX6aS-3" value="" style="endArrow=none;html=1;rounded=0;exitX=-0.011;exitY=0.104;exitDx=0;exitDy=0;exitPerimeter=0;entryX=1.005;entryY=0.116;entryDx=0;entryDy=0;entryPerimeter=0;" edge="1" parent="Hxf_RkgtDm0DmVYfX6aS-1" source="Hxf_RkgtDm0DmVYfX6aS-2" target="Hxf_RkgtDm0DmVYfX6aS-2">
          <mxGeometry width="50" height="50" relative="1" as="geometry">
            <mxPoint x="-5.684341886080802e-14" y="5" as="sourcePoint" />
            <mxPoint x="190" y="5" as="targetPoint" />
          </mxGeometry>
        </mxCell>
        <mxCell id="Hxf_RkgtDm0DmVYfX6aS-4" value="Дякуємо за довіру" style="text;html=1;strokeColor=none;fillColor=none;align=center;verticalAlign=middle;whiteSpace=wrap;rounded=0;fontFamily=Verdana;fontSize=14;" vertex="1" parent="Hxf_RkgtDm0DmVYfX6aS-1">
          <mxGeometry x="15" width="160" height="40" as="geometry" />
        </mxCell>
        <mxCell id="Hxf_RkgtDm0DmVYfX6aS-5" value="Після опрацювання інформації, Вам надійдуть результати" style="text;html=1;strokeColor=none;fillColor=none;align=center;verticalAlign=middle;whiteSpace=wrap;rounded=0;fontFamily=Verdana;fontSize=14;" vertex="1" parent="Hxf_RkgtDm0DmVYfX6aS-1">
          <mxGeometry x="15" y="90" width="160" height="40" as="geometry" />
        </mxCell>
        <mxCell id="Hxf_RkgtDm0DmVYfX6aS-6" value="Ок" style="rounded=1;whiteSpace=wrap;html=1;fontFamily=Verdana;fontSize=14;fillColor=#9FC5F9;strokeColor=#6c8ebf;fontColor=#ffffff;arcSize=35;" vertex="1" parent="Hxf_RkgtDm0DmVYfX6aS-1">
          <mxGeometry x="52.5" y="179" width="85" height="30" as="geometry" />
        </mxCell>
      </root>
    </mxGraphModel>
  </diagram>
</mxfile>
